<svg width="512" height="520" viewBox="0 0 512 520" fill="none" xmlns="http://www.w3.org/2000/svg">
<g clip-path="url(#clip0_28_46)" filter="url(#filter0_d_28_46)">
<path d="M218.726 213.217L181.568 145.883L234.758 156.107C250.313 159.094 261.216 141.01 251.286 128.652L196.327 60.259C191.154 53.822 182.27 52.126 175.206 55.773C178.253 66.439 177.939 77.583 174.667 87.805L195.562 113.809L165.872 108.102C165.956 112.891 164.983 117.828 162.76 122.612C156.644 134.672 118.671 209.556 113.317 220.115L149.527 110.501C152.485 101.55 147.624 91.896 138.673 88.939C129.722 85.982 120.069 90.841 117.111 99.793L97.268 159.863L99.987 124.51L79.227 135.299C67.765 141.256 61.483 153.925 63.66 166.657C68.575 195.408 74.68 231.103 75.066 233.385C76.373 241.119 82.781 246.968 90.604 247.563C98.442 248.153 105.657 243.31 108.107 235.897L109.893 230.491L133.97 277.078V489.243C133.97 501.812 144.16 512.002 156.73 512.002C169.3 512.002 179.49 501.812 179.49 489.243V269.663C179.49 269.663 191.538 266.657 306.881 238.664V191.824L218.726 213.217Z" fill="white"/>
<path d="M156.655 51.865C146.114 32.764 122.086 25.826 102.986 36.366C83.887 46.906 76.948 70.935 87.488 90.035C90.809 96.052 95.48 100.846 100.904 104.283L101.34 102.151C104.957 84.513 122.186 73.147 139.824 76.763C147.212 78.278 153.446 82.164 157.969 87.426C163.007 76.429 162.949 63.269 156.655 51.865Z" fill="white"/>
<path d="M425.47 57.82H401.476V36.795V0H375.194V36.795V57.82H351.201C338.333 57.82 327.901 68.251 327.901 81.12V376.177C327.901 389.045 338.332 399.477 351.201 399.477H425.47C438.338 399.477 448.77 389.046 448.77 376.177V81.12C448.77 68.252 438.338 57.82 425.47 57.82Z" fill="white"/>
</g>
<defs>
<filter id="filter0_d_28_46" x="-4" y="0" width="520.001" height="520.001" filterUnits="userSpaceOnUse" color-interpolation-filters="sRGB">
<feFlood flood-opacity="0" result="BackgroundImageFix"/>
<feColorMatrix in="SourceAlpha" type="matrix" values="0 0 0 0 0 0 0 0 0 0 0 0 0 0 0 0 0 0 127 0" result="hardAlpha"/>
<feOffset dy="4"/>
<feGaussianBlur stdDeviation="2"/>
<feComposite in2="hardAlpha" operator="out"/>
<feColorMatrix type="matrix" values="0 0 0 0 0 0 0 0 0 0 0 0 0 0 0 0 0 0 0.25 0"/>
<feBlend mode="normal" in2="BackgroundImageFix" result="effect1_dropShadow_28_46"/>
<feBlend mode="normal" in="SourceGraphic" in2="effect1_dropShadow_28_46" result="shape"/>
</filter>
<clipPath id="clip0_28_46">
<rect width="512.001" height="512.001" fill="white"/>
</clipPath>
</defs>
</svg>
