<svg width="346" height="512" viewBox="0 0 346 512" fill="none" xmlns="http://www.w3.org/2000/svg">
<path d="M183.502 100.004C206.975 100.004 226.004 80.9752 226.004 57.502C226.004 34.0288 206.975 15 183.502 15C160.029 15 141 34.0288 141 57.502C141 80.9752 160.029 100.004 183.502 100.004Z" fill="white"/>
<path d="M335.72 203.093C326.374 197.753 314.467 201.001 309.127 210.348C305.982 215.852 305.836 222.237 308.14 227.653L305.071 233.025L275.845 202.052L251.689 127.963C249.275 120.559 242.728 115.665 235.438 114.988V114.721H141.199C140.977 114.625 140.768 114.513 140.54 114.424L83.6742 92.138L78.8422 37.0041L89.1922 37.0461C92.7332 41.7471 98.3352 44.8101 104.676 44.8371C115.441 44.8801 124.203 36.19 124.246 25.426C124.289 14.661 115.599 5.89905 104.834 5.85605C98.4952 5.83005 92.8662 8.84805 89.2882 13.52L76.3842 13.468C73.8602 5.05405 65.7072 -0.716952 56.6102 0.072048C48.7242 0.764048 42.4022 6.20105 40.1922 13.322L35.0542 13.301C31.5132 8.60005 25.9112 5.53605 19.5702 5.51005C8.80717 5.46505 0.0441663 14.156 0.000166334 24.92C-0.0438337 35.685 8.64717 44.4471 19.4122 44.4901C25.7512 44.5151 31.3802 41.498 34.9582 36.826L40.8372 36.849L46.9962 107.127C47.6242 114.286 52.2522 120.472 58.9432 123.093L126.73 149.658C126.762 149.671 126.795 149.679 126.829 149.691V282.289L79.9232 481.754C76.8132 494.982 85.0142 508.228 98.2422 511.339C111.477 514.449 124.717 506.244 127.827 493.02L175.402 290.715H186.866L234.441 493.02C237.551 506.246 250.793 514.449 264.026 511.339C277.255 508.228 285.456 494.982 282.345 481.754L235.438 282.29V200.208L241.178 217.816C242.044 220.473 243.488 222.905 245.406 224.937L285.446 267.372L281.236 274.741C275.4 275.506 269.975 278.874 266.83 284.379C261.49 293.725 264.738 305.632 274.085 310.972C283.431 316.312 295.338 313.064 300.678 303.717C303.823 298.213 303.969 291.828 301.665 286.412L304.08 282.185C310.219 283.47 316.466 281.675 320.96 277.436C328.483 270.336 328.889 258.536 321.94 250.926L328.569 239.323C334.405 238.558 339.83 235.189 342.975 229.685C348.315 220.339 345.066 208.434 335.72 203.093Z" fill="white"/>
</svg>
