<svg width="512" height="292" viewBox="0 0 512 292" fill="none" xmlns="http://www.w3.org/2000/svg">
<path d="M45.611 76.078C66.6194 76.078 83.65 59.0474 83.65 38.039C83.65 17.0306 66.6194 0 45.611 0C24.6026 0 7.572 17.0306 7.572 38.039C7.572 59.0474 24.6026 76.078 45.611 76.078Z" fill="white"/>
<path d="M498.298 150.776C490.045 147.601 480.686 149.836 474.757 156.399C470.23 161.412 436.944 198.263 432.052 203.679L184 158.697C180.568 152.091 172.956 148.442 165.42 150.335C158.935 151.965 114.567 163.117 107.543 164.883L64.97 115.028L108.343 150.265L122.492 146.708L117.946 129.163L134.296 143.741L162.012 136.774C173.073 133.993 184.236 137.663 191.551 145.399L207.672 148.322C209.451 145.663 210.477 142.462 210.442 139.021C210.347 129.942 202.88 122.697 193.831 122.754L160.557 123.104L118.935 85.9C113.248 80.817 105.464 78.778 98.015 80.421L33.128 94.738C20.36 97.678 12.393 110.412 15.333 123.179L44.248 248.755H21.378C9.571 248.757 0 258.328 0 270.134C0 281.941 9.571 291.512 21.378 291.512C55.548 291.512 477.068 291.512 490.622 291.512C502.428 291.512 512 281.941 512 270.134V170.728C512 161.883 506.554 153.951 498.298 150.776ZM132.743 248.757L195.159 202.377L243.676 248.757H132.743ZM391.337 248.757H307.099C307.048 248.707 307.003 248.651 306.951 248.6L266.654 210.076L180.764 194.5C180.764 194.5 152.923 201.737 104.157 214.049C93.781 216.658 83.275 211.769 78.333 202.827L44.648 141.856L89.163 193.984C93.221 198.736 99.619 200.773 105.672 199.252C111.547 197.775 167.421 183.73 173.436 182.218C175.557 181.685 177.47 180.754 179.132 179.538L415.191 222.345C406.455 232.018 407.028 231.384 391.337 248.757Z" fill="white"/>
</svg>
