<svg width="98" height="51" viewBox="0 0 98 51" fill="none" xmlns="http://www.w3.org/2000/svg">
<path d="M63.9574 47.1392C63.2879 47.1392 62.7112 47.0166 62.2273 46.7713C61.7434 46.526 61.3705 46.1896 61.1087 45.7621C60.8468 45.3345 60.7159 44.8456 60.7159 44.2955C60.7159 43.8712 60.8054 43.495 60.9844 43.1669C61.1667 42.8355 61.4169 42.5289 61.7351 42.2472C62.0566 41.9621 62.4261 41.6771 62.8438 41.392L64.3153 40.2983C64.6037 40.1094 64.834 39.9072 65.0064 39.6918C65.1821 39.4763 65.2699 39.1946 65.2699 38.8466C65.2699 38.5881 65.1555 38.3378 64.9268 38.0959C64.7015 37.8539 64.4048 37.733 64.0369 37.733C63.7784 37.733 63.5497 37.7992 63.3509 37.9318C63.1553 38.0611 63.0012 38.2268 62.8885 38.429C62.7791 38.6278 62.7244 38.8333 62.7244 39.0455C62.7244 39.2841 62.7891 39.526 62.9183 39.7713C63.0509 40.0133 63.2183 40.2618 63.4205 40.517C63.6259 40.7689 63.8381 41.0275 64.0568 41.2926L68.7301 47H67.3182L63.4602 42.3466C63.1023 41.9157 62.7775 41.5246 62.4858 41.1733C62.1941 40.822 61.9621 40.4756 61.7898 40.1342C61.6174 39.7929 61.5312 39.4233 61.5312 39.0256C61.5312 38.5682 61.6323 38.1671 61.8345 37.8224C62.04 37.4744 62.3267 37.2043 62.6946 37.0121C63.0658 36.8165 63.5 36.7188 63.9972 36.7188C64.5076 36.7188 64.9467 36.8182 65.3146 37.017C65.6825 37.2126 65.9659 37.4728 66.1648 37.7976C66.3636 38.1191 66.4631 38.4688 66.4631 38.8466C66.4631 39.3338 66.3421 39.7564 66.1001 40.1143C65.8582 40.4723 65.5284 40.8054 65.1108 41.1136L63.0824 42.625C62.625 42.9631 62.3151 43.2912 62.1527 43.6094C61.9903 43.9276 61.9091 44.1562 61.9091 44.2955C61.9091 44.6136 61.992 44.9103 62.1577 45.1854C62.3234 45.4605 62.5571 45.6825 62.8587 45.8516C63.1603 46.0206 63.5133 46.1051 63.9176 46.1051C64.3021 46.1051 64.6766 46.0239 65.0412 45.8615C65.4058 45.6958 65.7356 45.4571 66.0305 45.1456C66.3288 44.834 66.5642 44.4595 66.7365 44.022C66.9122 43.5845 67 43.0923 67 42.5455H68.1335C68.1335 43.2216 68.0556 43.7734 67.8999 44.201C67.7441 44.6286 67.5684 44.9633 67.3729 45.2053C67.1773 45.4472 67.0199 45.6278 66.9006 45.7472C66.8608 45.7969 66.8243 45.8466 66.7912 45.8963C66.758 45.946 66.7216 45.9957 66.6818 46.0455C66.3537 46.4134 65.9394 46.6884 65.4389 46.8707C64.9384 47.0497 64.4446 47.1392 63.9574 47.1392Z" fill="#FAFF11"/>
<path d="M78.0208 9.77083H75.2292V5.58333C75.2292 5.21314 75.0821 4.8581 74.8203 4.59633C74.5586 4.33456 74.2035 4.1875 73.8333 4.1875H69.6458V1.39583C69.6458 1.02564 69.4988 0.6706 69.237 0.40883C68.9752 0.147061 68.6202 0 68.25 0H62.6667C62.2965 0 61.9414 0.147061 61.6797 0.40883C61.4179 0.6706 61.2708 1.02564 61.2708 1.39583V9.77083H58.4792C58.3183 8.98263 57.89 8.27422 57.2668 7.76551C56.6436 7.25679 55.8638 6.979 55.0594 6.97917C54.8251 6.98093 54.5915 7.00429 54.3615 7.04896V6.28125C54.3582 5.52706 54.1107 4.79422 53.656 4.1925C53.2013 3.59079 52.5639 3.15258 51.8392 2.94352C51.1146 2.73445 50.3417 2.76579 49.6364 3.03283C48.931 3.29987 48.3312 3.78824 47.9267 4.42479C47.5093 4.25966 47.0633 4.17901 46.6146 4.1875C45.7863 4.17459 44.9804 4.45677 44.3411 4.98357C43.7018 5.51037 43.2707 6.24743 43.125 7.06292C42.896 7.01008 42.6621 6.982 42.4271 6.97917C41.6226 6.979 40.8428 7.25679 40.2196 7.76551C39.5965 8.27422 39.1682 8.98263 39.0073 9.77083H36.1458V1.39583C36.1458 1.02564 35.9988 0.6706 35.737 0.40883C35.4752 0.147061 35.1202 0 34.75 0H29.1667C28.7965 0 28.4414 0.147061 28.1797 0.40883C27.9179 0.6706 27.7708 1.02564 27.7708 1.39583V4.1875H23.5833C23.2131 4.1875 22.8581 4.33456 22.5963 4.59633C22.3346 4.8581 22.1875 5.21314 22.1875 5.58333V9.77083H19.3958C19.0256 9.77083 18.6706 9.91789 18.4088 10.1797C18.1471 10.4414 18 10.7965 18 11.1667V16.75C18 17.1202 18.1471 17.4752 18.4088 17.737C18.6706 17.9988 19.0256 18.1458 19.3958 18.1458H22.1875V22.3333C22.1875 22.7035 22.3346 23.0586 22.5963 23.3203C22.8581 23.5821 23.2131 23.7292 23.5833 23.7292H27.7708V26.5208C27.7708 26.891 27.9179 27.2461 28.1797 27.5078C28.4414 27.7696 28.7965 27.9167 29.1667 27.9167H34.75C35.1202 27.9167 35.4752 27.7696 35.737 27.5078C35.9988 27.2461 36.1458 26.891 36.1458 26.5208V18.1458H38.9375V23.7292C38.9384 24.9663 39.3502 26.168 40.1081 27.1457C40.866 28.1234 41.9272 28.8218 43.125 29.131V32.1042C43.125 32.4744 43.2721 32.8294 43.5338 33.0912C43.7956 33.3529 44.1506 33.5 44.5208 33.5H52.8958C53.266 33.5 53.6211 33.3529 53.8828 33.0912C54.1446 32.8294 54.2917 32.4744 54.2917 32.1042V29.131C55.4895 28.8218 56.5507 28.1234 57.3086 27.1457C58.0665 26.168 58.4782 24.9663 58.4792 23.7292V18.1458H61.2708V26.5208C61.2708 26.891 61.4179 27.2461 61.6797 27.5078C61.9414 27.7696 62.2965 27.9167 62.6667 27.9167H68.25C68.6202 27.9167 68.9752 27.7696 69.237 27.5078C69.4988 27.2461 69.6458 26.891 69.6458 26.5208V23.7292H73.8333C74.2035 23.7292 74.5586 23.5821 74.8203 23.3203C75.0821 23.0586 75.2292 22.7035 75.2292 22.3333V18.1458H78.0208C78.391 18.1458 78.7461 17.9988 79.0078 17.737C79.2696 17.4752 79.4167 17.1202 79.4167 16.75V11.1667C79.4167 10.7965 79.2696 10.4414 79.0078 10.1797C78.7461 9.91789 78.391 9.77083 78.0208 9.77083ZM54.9896 9.77083C55.1747 9.77083 55.3522 9.84436 55.4831 9.97525C55.614 10.1061 55.6875 10.2837 55.6875 10.4688V15.3542H54.2917V10.4688C54.2917 10.2837 54.3652 10.1061 54.4961 9.97525C54.627 9.84436 54.8045 9.77083 54.9896 9.77083ZM50.1042 6.28125C50.1042 6.09615 50.1777 5.91863 50.3086 5.78775C50.4395 5.65686 50.617 5.58333 50.8021 5.58333C50.9872 5.58333 51.1647 5.65686 51.2956 5.78775C51.4265 5.91863 51.5 6.09615 51.5 6.28125V15.3542H50.1042V6.28125ZM45.9167 7.67708C45.9167 7.49198 45.9902 7.31447 46.1211 7.18358C46.252 7.0527 46.4295 6.97917 46.6146 6.97917C46.7997 6.97917 46.9772 7.0527 47.1081 7.18358C47.239 7.31447 47.3125 7.49198 47.3125 7.67708V15.3542H45.9167V7.67708ZM41.7292 10.4688C41.7292 10.2837 41.8027 10.1061 41.9336 9.97525C42.0645 9.84436 42.242 9.77083 42.4271 9.77083C42.6122 9.77083 42.7897 9.84436 42.9206 9.97525C43.0515 10.1061 43.125 10.2837 43.125 10.4688V15.3542H41.7292V10.4688ZM20.7917 15.3542V12.5625H22.1875V15.3542H20.7917ZM24.9792 20.9375V6.97917H27.7708V20.9375H24.9792ZM33.3542 25.125H30.5625V2.79167H33.3542V25.125ZM36.1458 12.5625H38.9375V15.3542H36.1458V12.5625ZM55.6875 23.7292C55.6875 24.4696 55.3934 25.1796 54.8698 25.7032C54.3463 26.2267 53.6362 26.5208 52.8958 26.5208C52.5256 26.5208 52.1706 26.6679 51.9088 26.9297C51.6471 27.1914 51.5 27.5465 51.5 27.9167V30.7083H45.9167V27.9167C45.9167 27.5465 45.7696 27.1914 45.5078 26.9297C45.2461 26.6679 44.891 26.5208 44.5208 26.5208C43.7804 26.5208 43.0704 26.2267 42.5468 25.7032C42.0233 25.1796 41.7292 24.4696 41.7292 23.7292V18.1458H46.1679C45.9449 18.7765 45.8763 19.4514 45.9677 20.1141C46.0592 20.7767 46.308 21.4078 46.6935 21.9545C47.0789 22.5012 47.5897 22.9477 48.1831 23.2564C48.7765 23.5652 49.4352 23.7273 50.1042 23.7292H51.5C51.8702 23.7292 52.2252 23.5821 52.487 23.3203C52.7488 23.0586 52.8958 22.7035 52.8958 22.3333C52.8958 21.9631 52.7488 21.6081 52.487 21.3463C52.2252 21.0846 51.8702 20.9375 51.5 20.9375H50.1042C49.734 20.9375 49.3789 20.7904 49.1172 20.5287C48.8554 20.2669 48.7083 19.9119 48.7083 19.5417C48.7083 19.1715 48.8554 18.8164 49.1172 18.5547C49.3789 18.2929 49.734 18.1458 50.1042 18.1458H55.6875V23.7292ZM58.4792 15.3542V12.5625H61.2708V15.3542H58.4792ZM66.8542 25.125H64.0625V2.79167H66.8542V25.125ZM72.4375 20.9375H69.6458V6.97917H72.4375V20.9375ZM76.625 15.3542H75.2292V12.5625H76.625V15.3542Z" fill="#FAFF11"/>
<path d="M6.80114 39.3636C6.74148 38.8598 6.49953 38.4688 6.07528 38.1903C5.65104 37.9119 5.13068 37.7727 4.5142 37.7727C4.06345 37.7727 3.66903 37.8456 3.33097 37.9915C2.99621 38.1373 2.73438 38.3378 2.54545 38.593C2.35985 38.8482 2.26705 39.1383 2.26705 39.4631C2.26705 39.7348 2.33168 39.9685 2.46094 40.1641C2.59351 40.3563 2.76255 40.517 2.96804 40.6463C3.17353 40.7723 3.38897 40.8767 3.61435 40.9595C3.83973 41.0391 4.04688 41.1037 4.2358 41.1534L5.26989 41.4318C5.53504 41.5014 5.83002 41.5975 6.15483 41.7202C6.48295 41.8428 6.79616 42.0102 7.09446 42.2223C7.39607 42.4311 7.64465 42.6996 7.8402 43.0277C8.03575 43.3558 8.13352 43.7585 8.13352 44.2358C8.13352 44.786 7.98935 45.2831 7.70099 45.7273C7.41596 46.1714 6.99834 46.5244 6.44815 46.7862C5.90128 47.0481 5.23674 47.179 4.45455 47.179C3.72538 47.179 3.09399 47.0613 2.56037 46.826C2.03007 46.5907 1.61245 46.2625 1.30753 45.8416C1.00592 45.4207 0.835227 44.9318 0.795455 44.375H2.06818C2.10133 44.7595 2.23059 45.0777 2.45597 45.3295C2.68466 45.5781 2.97301 45.7637 3.32102 45.8864C3.67235 46.0057 4.05019 46.0653 4.45455 46.0653C4.92519 46.0653 5.34777 45.9891 5.7223 45.8366C6.09683 45.6809 6.39347 45.4654 6.61222 45.1903C6.83097 44.9119 6.94034 44.5871 6.94034 44.2159C6.94034 43.8778 6.84588 43.6027 6.65696 43.3906C6.46804 43.1785 6.21946 43.0062 5.91122 42.8736C5.60298 42.741 5.26989 42.625 4.91193 42.5256L3.65909 42.1676C2.86364 41.9389 2.2339 41.6125 1.76989 41.1882C1.30587 40.764 1.07386 40.2088 1.07386 39.5227C1.07386 38.9527 1.22798 38.4555 1.53622 38.0312C1.84777 37.6037 2.26539 37.2723 2.78906 37.0369C3.31605 36.7983 3.90436 36.679 4.55398 36.679C5.21023 36.679 5.79356 36.7966 6.30398 37.032C6.81439 37.264 7.21875 37.5821 7.51705 37.9865C7.81866 38.3909 7.97775 38.8499 7.99432 39.3636H6.80114ZM13.3226 39.3636V40.358H9.36523V39.3636H13.3226ZM10.5186 37.5341H11.6919V44.8125C11.6919 45.1439 11.74 45.3925 11.8361 45.5582C11.9355 45.7206 12.0615 45.83 12.214 45.8864C12.3697 45.9394 12.5338 45.9659 12.7061 45.9659C12.8354 45.9659 12.9415 45.9593 13.0243 45.946C13.1072 45.9295 13.1735 45.9162 13.2232 45.9062L13.4618 46.9602C13.3823 46.9901 13.2712 47.0199 13.1287 47.0497C12.9862 47.0829 12.8056 47.0994 12.5868 47.0994C12.2554 47.0994 11.9306 47.0282 11.6124 46.8857C11.2975 46.7431 11.0357 46.526 10.8269 46.2344C10.6214 45.9427 10.5186 45.5748 10.5186 45.1307V37.5341ZM15.0875 47V39.3636H16.2211V40.517H16.3006C16.4398 40.1392 16.6917 39.8326 17.0563 39.5973C17.4209 39.362 17.8319 39.2443 18.2892 39.2443C18.3754 39.2443 18.4831 39.246 18.6124 39.2493C18.7417 39.2526 18.8394 39.2576 18.9057 39.2642V40.4574C18.8659 40.4474 18.7748 40.4325 18.6323 40.4126C18.4931 40.3894 18.3456 40.3778 18.1898 40.3778C17.8186 40.3778 17.4872 40.4557 17.1955 40.6115C16.9071 40.764 16.6784 40.9761 16.5094 41.2479C16.3437 41.5163 16.2608 41.8229 16.2608 42.1676V47H15.0875ZM23.2658 47.1591C22.53 47.1591 21.8953 46.9967 21.3617 46.6719C20.8314 46.3438 20.4221 45.8864 20.1337 45.2997C19.8487 44.7098 19.7061 44.0237 19.7061 43.2415C19.7061 42.4593 19.8487 41.7699 20.1337 41.1733C20.4221 40.5734 20.8231 40.1061 21.3368 39.7713C21.8539 39.4332 22.4571 39.2642 23.1465 39.2642C23.5442 39.2642 23.937 39.3305 24.3248 39.4631C24.7125 39.5956 25.0655 39.8111 25.3837 40.1094C25.7019 40.4044 25.9554 40.7955 26.1444 41.2827C26.3333 41.7699 26.4277 42.3698 26.4277 43.0824V43.5795H20.5414V42.5653H25.2346C25.2346 42.1345 25.1484 41.75 24.976 41.4119C24.807 41.0739 24.565 40.8071 24.2502 40.6115C23.9386 40.416 23.5707 40.3182 23.1465 40.3182C22.6792 40.3182 22.2748 40.4342 21.9334 40.6662C21.5953 40.8949 21.3352 41.1932 21.1529 41.5611C20.9706 41.929 20.8794 42.3234 20.8794 42.7443V43.4205C20.8794 43.9972 20.9789 44.486 21.1777 44.8871C21.3799 45.2848 21.66 45.5881 22.0179 45.7969C22.3759 46.0024 22.7918 46.1051 23.2658 46.1051C23.574 46.1051 23.8525 46.062 24.101 45.9759C24.3529 45.8864 24.57 45.7538 24.7523 45.5781C24.9346 45.3991 25.0755 45.1771 25.1749 44.9119L26.3084 45.2301C26.1891 45.6146 25.9886 45.9527 25.7069 46.2443C25.4251 46.5327 25.0771 46.758 24.6628 46.9205C24.2485 47.0795 23.7828 47.1591 23.2658 47.1591ZM29.3858 42.4062V47H28.2125V39.3636H29.3461V40.5568H29.4455C29.6245 40.169 29.8962 39.8575 30.2608 39.6222C30.6254 39.3835 31.0961 39.2642 31.6728 39.2642C32.1898 39.2642 32.6422 39.3703 33.03 39.5824C33.4178 39.7912 33.7194 40.1094 33.9348 40.5369C34.1503 40.9612 34.258 41.4981 34.258 42.1477V47H33.0847V42.2273C33.0847 41.6274 32.9289 41.16 32.6174 40.8253C32.3058 40.4872 31.8783 40.3182 31.3347 40.3182C30.9602 40.3182 30.6254 40.3994 30.3304 40.5618C30.0388 40.7242 29.8084 40.9612 29.6394 41.2727C29.4703 41.5843 29.3858 41.9621 29.3858 42.4062ZM39.4844 50.0227C38.9176 50.0227 38.4304 49.9498 38.0227 49.804C37.6151 49.6615 37.2753 49.4725 37.0036 49.2372C36.7351 49.0052 36.5213 48.7566 36.3622 48.4915L37.2969 47.8352C37.4029 47.9744 37.5372 48.1335 37.6996 48.3125C37.862 48.4948 38.084 48.6522 38.3658 48.7848C38.6508 48.9207 39.0237 48.9886 39.4844 48.9886C40.1009 48.9886 40.6096 48.8395 41.0107 48.5412C41.4117 48.2429 41.6122 47.7756 41.6122 47.1392V45.5881H41.5128C41.4266 45.7273 41.304 45.8996 41.1449 46.1051C40.9891 46.3073 40.7637 46.4879 40.4688 46.647C40.1771 46.8028 39.7827 46.8807 39.2855 46.8807C38.669 46.8807 38.1155 46.7348 37.625 46.4432C37.1378 46.1515 36.7517 45.7273 36.4666 45.1705C36.1849 44.6136 36.044 43.9375 36.044 43.142C36.044 42.3598 36.1816 41.6787 36.4567 41.0987C36.7318 40.5154 37.1146 40.0646 37.6051 39.7464C38.0956 39.425 38.6624 39.2642 39.3054 39.2642C39.8026 39.2642 40.197 39.3471 40.4886 39.5128C40.7836 39.6752 41.009 39.8608 41.1648 40.0696C41.3239 40.2751 41.4465 40.4441 41.5327 40.5767H41.652V39.3636H42.7855V47.2188C42.7855 47.875 42.6364 48.4086 42.3381 48.8196C42.0431 49.2339 41.6454 49.5372 41.1449 49.7294C40.6477 49.925 40.0942 50.0227 39.4844 50.0227ZM39.4446 45.8267C39.9152 45.8267 40.313 45.719 40.6378 45.5036C40.9626 45.2881 41.2095 44.9782 41.3786 44.5739C41.5476 44.1695 41.6321 43.6856 41.6321 43.1222C41.6321 42.572 41.5492 42.0864 41.3835 41.6655C41.2178 41.2446 40.9725 40.9148 40.6477 40.6761C40.3229 40.4375 39.9219 40.3182 39.4446 40.3182C38.9474 40.3182 38.5331 40.4441 38.2017 40.696C37.8736 40.9479 37.6267 41.286 37.4609 41.7102C37.2985 42.1345 37.2173 42.6051 37.2173 43.1222C37.2173 43.6525 37.3002 44.1214 37.4659 44.5291C37.6349 44.9335 37.8835 45.2517 38.2116 45.4837C38.5431 45.7124 38.9541 45.8267 39.4446 45.8267ZM48.2543 39.3636V40.358H44.2969V39.3636H48.2543ZM45.4503 37.5341H46.6236V44.8125C46.6236 45.1439 46.6716 45.3925 46.7678 45.5582C46.8672 45.7206 46.9931 45.83 47.1456 45.8864C47.3014 45.9394 47.4654 45.9659 47.6378 45.9659C47.767 45.9659 47.8731 45.9593 47.956 45.946C48.0388 45.9295 48.1051 45.9162 48.1548 45.9062L48.3935 46.9602C48.3139 46.9901 48.2029 47.0199 48.0604 47.0497C47.9179 47.0829 47.7372 47.0994 47.5185 47.0994C47.187 47.0994 46.8622 47.0282 46.544 46.8857C46.2292 46.7431 45.9673 46.526 45.7585 46.2344C45.553 45.9427 45.4503 45.5748 45.4503 45.1307V37.5341ZM51.3565 42.4062V47H50.1832V36.8182H51.3565V40.5568H51.456C51.6349 40.1624 51.9034 39.8492 52.2614 39.6172C52.6226 39.3819 53.1032 39.2642 53.7031 39.2642C54.2235 39.2642 54.6792 39.3686 55.0703 39.5774C55.4614 39.7829 55.7647 40.0994 55.9801 40.527C56.1989 40.9512 56.3082 41.4915 56.3082 42.1477V47H55.1349V42.2273C55.1349 41.6207 54.9775 41.1518 54.6626 40.8203C54.3511 40.4856 53.9186 40.3182 53.3651 40.3182C52.9806 40.3182 52.6359 40.3994 52.331 40.5618C52.0294 40.7242 51.7907 40.9612 51.6151 41.2727C51.4427 41.5843 51.3565 41.9621 51.3565 42.4062Z" fill="#FAFF11"/>
<path d="M77.0824 47L74.2983 36.8182H75.5511L77.679 45.1108H77.7784L79.946 36.8182H81.3381L83.5057 45.1108H83.6051L85.733 36.8182H86.9858L84.2017 47H82.929L80.6818 38.8864H80.6023L78.3551 47H77.0824ZM88.3629 47V39.3636H89.5362V47H88.3629ZM88.9595 38.0909C88.7308 38.0909 88.5336 38.013 88.3679 37.8572C88.2055 37.7015 88.1243 37.5142 88.1243 37.2955C88.1243 37.0767 88.2055 36.8894 88.3679 36.7337C88.5336 36.5779 88.7308 36.5 88.9595 36.5C89.1882 36.5 89.3838 36.5779 89.5462 36.7337C89.7119 36.8894 89.7947 37.0767 89.7947 37.2955C89.7947 37.5142 89.7119 37.7015 89.5462 37.8572C89.3838 38.013 89.1882 38.0909 88.9595 38.0909ZM92.8585 36.8182V47H91.6852V36.8182H92.8585ZM96.1808 36.8182V47H95.0075V36.8182H96.1808Z" fill="#FAFF11"/>
</svg>
