<svg width="46" height="46" viewBox="0 0 354 354" fill="none" xmlns="http://www.w3.org/2000/svg">
<circle cx="177" cy="177" r="177" fill="white"/>
<path d="M176.5 335C264.037 335 335 264.037 335 176.5C335 88.9629 264.037 18 176.5 18C88.9629 18 18 88.9629 18 176.5C18 264.037 88.9629 335 176.5 335Z" fill="url(#paint0_linear_40_19)"/>
<path d="M255.598 110.935C257.009 101.816 248.339 94.6183 240.231 98.1783L78.7374 169.082C72.9229 171.635 73.3482 180.443 79.3788 182.363L112.682 192.969C119.039 194.994 125.922 193.946 131.472 190.112L206.558 138.237C208.823 136.672 211.291 139.892 209.356 141.886L155.307 197.61C150.064 203.016 151.105 212.176 157.412 216.131L217.925 254.078C224.712 258.334 233.443 254.059 234.713 245.856L255.598 110.935Z" fill="white"/>
<defs>
<linearGradient id="paint0_linear_40_19" x1="176.5" y1="18" x2="176.5" y2="335" gradientUnits="userSpaceOnUse">
<stop stop-color="#37BBFE"/>
<stop offset="1" stop-color="#007DBB"/>
</linearGradient>
</defs>
</svg>
