<svg width="46" height="46" viewBox="0 0 46 46" fill="none" xmlns="http://www.w3.org/2000/svg">
<circle cx="22.8501" cy="23.1499" r="22.8501" fill="#1BD741"/>
<path d="M22.3443 8.58658C14.4642 8.96178 8.24574 15.5243 8.26965 23.4133C8.27692 25.8161 8.857 28.084 9.88028 30.0879L8.30918 37.7142C8.22419 38.1268 8.59625 38.488 9.00607 38.3909L16.479 36.6205C18.3989 37.5768 20.5553 38.1292 22.8376 38.164C30.8918 38.287 37.6075 31.8918 37.8586 23.8406C38.1277 15.2103 31.0048 8.17412 22.3443 8.58658ZM31.261 31.5608C29.0725 33.7493 26.1628 34.9546 23.0678 34.9546C21.2556 34.9546 19.5205 34.548 17.9108 33.7461L16.8701 33.2277L12.2884 34.3132L13.2528 29.6316L12.7401 28.6276C11.9044 26.991 11.4807 25.2212 11.4807 23.3675C11.4807 20.2725 12.686 17.3628 14.8745 15.1742C17.0434 13.0052 20.0006 11.7804 23.068 11.7804C26.163 11.7804 29.0726 12.9857 31.2611 15.1741C33.4496 17.3626 34.6549 20.2723 34.6549 23.3673C34.6549 26.4347 33.43 29.392 31.261 31.5608Z" fill="white"/>
<path d="M30.2496 26.5767L27.3832 25.7537C27.0064 25.6455 26.6005 25.7524 26.3259 26.0322L25.625 26.7463C25.3294 27.0475 24.8809 27.1442 24.4897 26.986C23.1338 26.4372 20.2814 23.9011 19.553 22.6326C19.3429 22.2667 19.3776 21.8092 19.6356 21.4753L20.2476 20.6836C20.4874 20.3734 20.538 19.9568 20.3794 19.5982L19.1735 16.8707C18.8846 16.2174 18.0498 16.0272 17.5044 16.4885C16.7044 17.1651 15.7552 18.1933 15.6398 19.3324C15.4363 21.3407 16.2976 23.8724 19.5547 26.9123C23.3174 30.4242 26.3306 30.8881 28.2924 30.4129C29.4052 30.1434 30.2945 29.0629 30.8557 28.1782C31.2383 27.575 30.9362 26.7739 30.2496 26.5767Z" fill="white"/>
</svg>
